<?xml version="1.0"?><svg width="744.09448819" height="1052.3622047" xmlns="http://www.w3.org/2000/svg">
 <title>walking man black</title>

 <metadata id="metadata12390">image/svg+xmlOther map symbolsMohamed IbrahimPublic Domainclker.comother map symbols</metadata>
 <g>
  <title>Layer 1</title>
  <g id="svg_1">
   <path fill="#000000" fill-rule="nonzero" id="path4536" d="m369.671631,209.000107c16.516296,1.337585 30.822662,-10.933334 32.160248,-27.391479c1.279449,-16.458145 -10.991486,-30.764511 -27.507782,-32.160263c-16.341827,-1.221268 -30.764496,11.049637 -31.985779,27.507782c-1.395752,16.341827 10.875153,30.764526 27.333313,32.043961"/>
   <path fill="#000000" fill-rule="nonzero" id="path4538" d="m344.373779,221.271011c5.873749,-4.129074 13.026917,-6.862396 20.994293,-6.164536c10.235474,0.814178 18.609924,7.153198 23.727661,14.887939l30.124786,59.726196l41.116302,28.32196c3.489349,2.675201 5.69928,7.036865 5.234039,11.805664c-0.581573,7.385834 -7.036896,12.910645 -14.422699,12.270935c-2.268097,-0.116333 -4.129059,-1.046814 -6.16452,-1.977325l-44.838287,-30.880829c-1.395721,-1.10495 -2.500702,-2.500702 -3.431183,-3.95459l-11.224121,-22.390076l-13.550354,59.551758l52.980103,62.575836c1.221283,1.919159 2.035461,4.187225 2.500732,6.455322l14.306366,75.544617c-0.116333,1.686523 0.116302,2.733337 0,4.070923c-0.814178,11.282257 -10.584381,19.424103 -21.6922,18.609924c-9.246796,-0.756042 -16.051025,-7.560303 -18.20282,-15.99292l-13.492188,-70.775818l-43.093567,-47.106354l-9.944702,45.885071c-0.348907,2.151764 -3.198547,6.687927 -4.012756,8.490784l-41.348907,69.670868c-4.070923,6.338989 -10.991486,10.409912 -18.842529,9.770203c-11.224121,-0.814178 -19.540421,-10.584381 -18.609924,-21.750336c0.23262,-3.140442 1.570221,-6.455322 2.733337,-8.723389l38.382935,-64.378693l32.043976,-141.900604l-20.936188,16.923401l-11.107788,50.537537c-1.512054,6.513458 -7.385803,11.805664 -14.306366,11.282257c-7.502106,-0.581573 -12.968781,-7.036865 -12.387207,-14.539001c0,-0.581543 0.116302,-1.163116 0.232605,-1.860992l13.14325,-58.912018c0.814178,-2.500702 2.151794,-4.768799 4.129089,-6.513458l59.958832,-48.560257z"/>
  </g>
 </g>
</svg>